<?xml version="1.0" encoding="UTF-8" standalone="no"?><!DOCTYPE svg PUBLIC "-//W3C//DTD SVG 1.1//EN" "http://www.w3.org/Graphics/SVG/1.1/DTD/svg11.dtd"><svg width="100%" height="100%" viewBox="0 0 225 225" version="1.1" xmlns="http://www.w3.org/2000/svg" xmlns:xlink="http://www.w3.org/1999/xlink" xml:space="preserve" xmlns:serif="http://www.serif.com/" style="fill-rule:evenodd;clip-rule:evenodd;stroke-linecap:round;stroke-linejoin:round;"><g id="Layer-1" serif:id="Layer 1"><path d="M61.072,61.281c-42.405,42.554 -73.65,108.442 -35.571,146.667c2.958,2.971 13.741,11.012 27.096,8.087c15.716,-3.445 60.187,-39.55 33.271,-66.3c-16.471,-16.37 -18.334,-8.354 -21.584,-11.329c-6.229,-5.683 3.363,-28 24.567,-49.271c21.204,-21.287 43.633,-30.416 49.304,-24.154c2.954,3.263 -6.129,6.125 10.342,22.504c27.258,27.084 64.154,-18.166 67.583,-33.945c2.917,-13.4 -5.867,-25.005 -8.825,-27.971c-38.096,-38.242 -103.775,-6.846 -146.183,35.712Z" style="fill:none;fill-rule:nonzero;stroke:#361d2e;stroke-width:16.67px;"/></g></svg>