<?xml version="1.0" encoding="UTF-8" standalone="no"?><!DOCTYPE svg PUBLIC "-//W3C//DTD SVG 1.1//EN" "http://www.w3.org/Graphics/SVG/1.1/DTD/svg11.dtd"><svg width="100%" height="100%" viewBox="0 0 217 217" version="1.1" xmlns="http://www.w3.org/2000/svg" xmlns:xlink="http://www.w3.org/1999/xlink" xml:space="preserve" xmlns:serif="http://www.serif.com/" style="fill-rule:evenodd;clip-rule:evenodd;stroke-linecap:round;stroke-linejoin:round;"><g id="Layer-1" serif:id="Layer 1"><path d="M208.333,166.667c0,23.008 -18.658,41.666 -41.666,41.666l-116.667,0c-23.013,0 -41.667,-18.658 -41.667,-41.666l0,-116.667c0,-23.013 18.654,-41.667 41.667,-41.667l116.667,0c23.008,0 41.666,18.654 41.666,41.667l0,116.667Z" style="fill:none;fill-rule:nonzero;stroke:#fff;stroke-width:16.67px;"/><path d="M162.5,108.333c0,-29.895 -24.271,-54.166 -54.167,-54.166c-29.895,-0 -54.166,24.271 -54.166,54.166c-0,29.896 24.271,54.167 54.166,54.167c29.896,0 54.167,-24.271 54.167,-54.167Z" style="fill:none;stroke:#fff;stroke-width:16.67px;"/><path d="M154.167,70.833l54.166,0" style="fill:none;fill-rule:nonzero;stroke:#fff;stroke-width:16.67px;"/><path d="M8.333,70.833l54.167,0" style="fill:none;fill-rule:nonzero;stroke:#fff;stroke-width:16.67px;"/><path d="M145.833,66.667l0,-58.334" style="fill:none;fill-rule:nonzero;stroke:#fff;stroke-width:16.67px;"/></g></svg>